<svg width="19" height="19" viewBox="0 0 19 19" fill="none" xmlns="http://www.w3.org/2000/svg">
<path id="Vector" d="M4.22739 0.00238044C4.46251 0.0976066 4.60168 0.290916 4.71853 0.499937C5.19732 1.35697 5.66851 2.22163 6.15015 3.07676C6.32162 3.3791 6.53014 3.66002 6.71633 3.95522C7.05642 4.49896 7.01937 4.78083 6.58904 5.24791C6.1948 5.67643 5.72456 6.01401 5.28092 6.38349C5.07438 6.55691 4.881 6.7455 4.70238 6.9477C4.51476 7.15815 4.47344 7.39241 4.58648 7.65285C4.8539 8.26563 5.21869 8.82366 5.57256 9.38644C6.79281 11.3272 8.43294 12.8227 10.4279 13.9349C10.7452 14.1116 11.042 14.3249 11.3893 14.4496C11.4956 14.4937 11.6123 14.5065 11.7257 14.4866C11.839 14.4667 11.9444 14.4149 12.0295 14.3373C12.3734 14.0516 12.6537 13.7088 12.9249 13.3574C13.1801 13.014 13.4644 12.6933 13.7747 12.3989C14.2112 11.9985 14.5 11.9471 14.9859 12.2756C16.0584 12.9998 17.2112 13.5802 18.335 14.2135C18.62 14.3744 18.9359 14.522 19 14.9053V15.1433C18.9317 15.5879 18.8397 16.0285 18.7245 16.4632C18.5796 16.9993 18.2718 17.4107 17.8353 17.7402C16.9765 18.3886 16.0304 18.8281 14.9621 19H13.7747C13.0736 18.8672 12.3972 18.6519 11.7251 18.4115C10.4402 17.9516 9.17772 17.4554 8.0444 16.6703C6.43941 15.5571 5.02965 14.2306 3.74766 12.7632C2.85895 11.7452 2.032 10.6739 1.48149 9.43025C0.830279 7.96043 0.191895 6.47824 0 4.85653V4.3804C0.0113689 4.35087 0.0196466 4.32023 0.0246996 4.28899C0.0959478 3.1777 0.547186 2.2121 1.16467 1.31317C1.51616 0.804185 1.95268 0.41709 2.57254 0.257587C2.9473 0.16236 3.32729 0.090941 3.70253 0L4.22739 0.00238044Z" fill="#45443F"/>
</svg>
