<svg width="57" height="65" viewBox="0 0 57 65" fill="none" xmlns="http://www.w3.org/2000/svg">
<path d="M47.9036 5.66455V0L40.9219 3.8153L46.1063 6.64433L47.9036 5.66455ZM47.2093 1.9336V5.45043L45.6066 2.81606L47.2093 1.9336ZM44.6398 3.33514L46.249 5.97601L43.0307 4.21759L44.6398 3.33514Z" fill="white"></path>
<path d="M45.549 7.55169L40.3711 4.72266V12.3533L45.5555 9.52422V7.55169H45.549ZM41.7921 6.25397L45.004 8.01238H41.7921V6.25397ZM41.7921 10.8219V9.06353H45.0104L41.7921 10.8219Z" fill="white"></path>
<path d="M49.0078 11.4075V17.0721L55.9896 13.2568L50.8052 10.4277L49.0078 11.4075ZM49.6956 15.1449V11.6216L51.3048 14.2625L49.6956 15.1449ZM52.2651 13.7369L50.6624 11.1025L53.8743 12.861L52.2651 13.7369Z" fill="white"></path>
<path d="M51.3555 7.55818V9.52422L56.5399 12.3533V4.72266L51.3555 7.55818ZM55.1189 10.8219L51.894 9.06353H55.1189V10.8219ZM55.1189 8.01887H51.907L55.1189 6.26045V8.01887Z" fill="white"></path>
<path d="M55.9896 3.8153L49.0078 0V5.66455L50.7987 6.64433L55.9896 3.8153ZM49.6956 1.9336L51.3048 2.81606L49.6956 5.45692V1.9336ZM52.2651 3.33514L53.8743 4.21759L50.6559 5.9825L52.2651 3.33514Z" fill="white"></path>
<path d="M47.8971 17.0799V11.4153L46.1063 10.4355L40.9219 13.2646L47.8971 17.0799ZM47.2093 15.1463L45.6066 14.2638L47.2093 11.6359V15.1463ZM46.2555 11.1039L44.6398 13.7382L43.0372 12.8623L46.2555 11.1039Z" fill="white"></path>
<path d="M17.1085 20.6008C19.9311 20.6592 20.7811 21.4897 20.846 22.2619L20.8784 22.5863C20.9108 23.034 20.9757 23.1768 21.2288 23.1768C21.4234 23.1768 21.4818 23.0016 21.5143 22.7031C21.5143 21.931 21.6116 19.887 21.6116 19.2641C21.6116 18.8229 21.5792 18.6412 21.3521 18.6412C21.099 18.6412 20.3399 18.9397 18.3089 18.9397H5.76644C4.72178 18.9397 3.52138 18.8813 2.6 18.7905C1.80839 18.7321 1.49045 18.4336 1.2374 18.4336C1.04923 18.4336 0.951897 18.6088 0.861056 18.9981C0.802659 19.2317 0.199219 21.931 0.199219 22.4111C0.199219 22.7355 0.257616 22.8848 0.484717 22.8848C0.672887 22.8848 0.770216 22.768 0.835102 22.5344C0.899988 22.2943 1.05571 21.9439 1.37366 21.4962C1.84732 20.8409 2.60649 20.6916 4.44277 20.6397L9.15998 20.5229V32.6826C9.15998 35.4078 9.15998 37.7437 9.00426 38.996C8.90693 39.8525 8.71876 40.5078 8.08287 40.6246C7.79738 40.683 7.42104 40.7349 6.94737 40.7349C6.57103 40.7349 6.44126 40.8258 6.44126 40.975C6.44126 41.1826 6.66187 41.2735 7.07065 41.2735C8.33593 41.2735 10.3344 41.1826 11.0611 41.1826C11.9501 41.1826 13.9421 41.2735 16.0379 41.2735C16.3883 41.2735 16.6349 41.1762 16.6349 40.975C16.6349 40.8258 16.4791 40.7349 16.1352 40.7349C15.6616 40.7349 14.9608 40.6765 14.5196 40.6246C13.5657 40.5013 13.3841 39.8525 13.2867 39.0219C13.1245 37.7437 13.1245 35.4078 13.1245 32.6826V20.5099L17.1085 20.6008Z" fill="white"></path>
<path d="M43.4053 40.9801C43.4053 40.7724 43.2496 40.74 43.003 40.74C42.6267 40.74 42.166 40.714 41.7053 40.6232C41.0565 40.474 40.161 40.0587 38.9866 37.3919C37.0076 32.8888 32.0568 20.7875 31.3171 19.1589C31.0121 18.4776 30.8239 18.2051 30.5449 18.2051C30.2335 18.2051 30.0518 18.5295 29.6819 19.3925L21.9216 38.0148C21.3052 39.5007 20.7147 40.5064 19.2872 40.6816C19.0406 40.7141 18.6059 40.74 18.3269 40.74C18.0803 40.74 17.957 40.7984 17.957 40.9801C17.957 41.2266 18.1452 41.2786 18.5475 41.2786C20.1632 41.2786 21.8632 41.1942 22.2006 41.1942C23.1609 41.1942 24.4846 41.2786 25.4773 41.2786C25.8147 41.2786 26.0029 41.2202 26.0029 40.9801C26.0029 40.7984 25.9056 40.74 25.5422 40.74H25.075C24.1212 40.74 23.8422 40.3572 23.8422 39.8251C23.8422 39.4682 23.9979 38.7545 24.3094 38.0148L25.9769 33.7777C26.0353 33.596 26.1002 33.5441 26.256 33.5441H33.1533C33.3091 33.5441 33.3999 33.6025 33.4583 33.7518L35.9305 40.0392C36.0862 40.3961 35.8721 40.6621 35.6579 40.727C35.3465 40.753 35.2232 40.8114 35.2232 40.9931C35.2232 41.2007 35.5996 41.2007 36.1511 41.2396C38.6232 41.298 40.8813 41.298 41.9908 41.298C43.1263 41.2786 43.4053 41.2202 43.4053 40.9801ZM32.5564 32.0518H26.8659C26.7426 32.0518 26.7102 31.9674 26.7426 31.8441L29.5846 24.5509C29.6171 24.4341 29.6819 24.2849 29.7728 24.2849C29.8636 24.2849 29.8961 24.4341 29.9285 24.5509L32.7056 31.8766C32.7446 31.9674 32.7056 32.0518 32.5564 32.0518Z" fill="white"></path>
<path d="M52.2889 18.9199C51.1079 18.9199 49.2003 19.0043 48.4736 19.0043C47.6884 19.0043 45.7808 18.9199 44.1716 18.9199C43.7174 18.9199 43.5033 18.9783 43.5033 19.186C43.5033 19.3936 43.685 19.452 44.0159 19.452C44.4441 19.452 44.9567 19.4844 45.1968 19.5428C46.1961 19.7505 46.4426 20.2241 46.501 21.2299C46.5594 22.1772 46.5594 23.0077 46.5594 27.5173V36.0304C46.5594 41.8507 46.5919 44.8095 44.2884 47.0999C43.685 47.6904 43.2308 48.0148 42.8285 48.2225C42.3159 48.4885 42.1602 48.6053 42.1602 48.7545C42.1602 48.9038 42.2834 48.9946 42.4067 48.9946C42.5624 48.9946 42.8025 48.9362 43.0102 48.8129C43.646 48.5145 44.1327 48.2744 44.5285 48.0408C47.4354 46.2953 49.0381 44.2449 49.674 42.4346C50.2839 40.7735 50.4007 38.8724 50.4007 37.1853C50.4007 35.6995 50.3098 34.2785 50.3098 33.0002V27.5173C50.3098 23.0142 50.3098 22.1772 50.3682 21.2299C50.4331 20.1917 50.6732 19.6856 51.4908 19.5428C51.8541 19.4844 52.0358 19.452 52.3732 19.452C52.7366 19.452 52.9183 19.3936 52.9183 19.186C52.9248 18.9783 52.7106 18.9199 52.2889 18.9199Z" fill="white"></path>
</svg>
