<svg width="141" height="65" viewBox="0 0 141 65" fill="none" xmlns="http://www.w3.org/2000/svg">
<g id="GATEWAY">
<g id="Vector">
<path d="M12.0843 32.6109H15.943V35.2795C15.0197 36.3737 13.1443 37.2658 10.8375 37.2658C6.91564 37.2658 4.03016 34.1275 4.03016 30.0131C4.03016 25.8987 6.91301 22.7919 10.7217 22.7919C13.0864 22.7919 15.1065 23.915 16.2612 25.9013L18.6549 24.5185C17.1529 21.5823 14.0386 20.0289 10.8375 20.0289C5.26905 20.0289 1 24.5185 1 29.9554C1 35.3923 5.29798 39.9685 10.8375 39.9685C14.6173 39.9685 17.4712 38.2131 18.7995 36.2844V29.9003H12.0869V32.6056L12.0843 32.6109Z" fill="white"></path>
<path d="M35.1945 30.8502H25.4438V28.8638C25.4438 25.038 27.0614 22.7919 30.3204 22.7919C33.5794 22.7919 35.1945 25.038 35.1945 28.8638V30.8502ZM30.3178 20C25.0098 20 22.5004 23.3377 22.5004 28.6906V39.6248H25.4438V33.5817H35.1945V39.6248H38.1378V28.6906C38.1378 23.3377 35.5706 20 30.3204 20" fill="white"></path>
<path d="M41.8387 23.0491H47.7517V39.6248H50.6951V23.0491H56.637V20.3437H41.8387V23.0491Z" fill="white"></path>
<path d="M63.2839 31.3094H73.0924V28.6329H63.2839V23.0228H73.6685V20.3464H63.0524C61.0639 20.3464 60.3405 21.3514 60.3405 22.994V36.9798C60.3405 38.6198 61.0612 39.6274 63.0524 39.6274H73.871V36.9509H63.2839V31.3094Z" fill="white"></path>
<path d="M97.6782 36.4891C97.6204 36.8932 97.5046 37.0926 97.2442 37.0926C96.9838 37.0926 96.8681 36.8906 96.755 36.4891L93.4381 22.7342C93.0331 20.9499 92.0835 20.1732 90.7263 20.1732C89.369 20.1732 88.4194 20.9787 88.0433 22.7631L84.8422 36.4891C84.7554 36.9483 84.5818 37.1215 84.3503 37.1215C84.1188 37.1215 83.9768 36.9194 83.89 36.4891L80.5153 20.3464H77.5719L81.2912 37.3813C81.6674 39.079 82.7931 40 84.2924 40C85.676 40 86.8018 39.079 87.1779 37.4679L90.4369 23.3666C90.4948 23.1068 90.6105 22.9913 90.7263 22.9913C90.8709 22.9913 90.9577 23.1068 91.0156 23.3666L94.3614 37.2947C94.7928 39.0501 95.8607 39.9711 97.3915 39.9711C98.9224 39.9711 99.9588 38.9058 100.306 37.2081L103.736 20.3464H100.793L97.6782 36.4891Z" fill="white"></path>
<path d="M120.131 30.8502H110.38V28.8638C110.38 25.038 111.995 22.7919 115.254 22.7919C118.513 22.7919 120.131 25.038 120.131 28.8638V30.8502ZM115.257 20C109.949 20 107.439 23.3377 107.439 28.6906V39.6248H110.383V33.5817H120.133V39.6248H123.077V28.6906C123.077 23.3377 120.51 20 115.259 20" fill="white"></path>
<path d="M138.057 20.3464V26.8486C138.057 29.4673 136.642 31.5665 133.845 31.5665C131.049 31.5665 129.721 29.4673 129.721 26.8486V20.3464H126.778V27.1661C126.778 30.7924 128.711 33.5817 132.375 34.159V39.6274H135.318V34.159C139.04 33.5844 141 30.8213 141 27.1661V20.3464H138.057Z" fill="white"></path>
</g>
</g>
</svg>
