<svg width="167" height="65" viewBox="0 0 167 65" fill="none" xmlns="http://www.w3.org/2000/svg">
<path d="M11.2718 22.2424C11.7185 22.2424 12.05 22.2838 12.2654 22.3659C12.4802 22.4496 12.6294 22.5897 12.7122 22.7886C12.7951 22.9875 12.8365 23.3016 12.8365 23.7326V35.2309C12.8365 35.7281 12.7823 36.0965 12.6753 36.3361C12.5668 36.5764 12.3604 36.7377 12.0538 36.8205C11.7471 36.9034 11.2717 36.9448 10.6261 36.9448C10.5929 36.9448 10.5763 36.9946 10.5763 37.094C10.5763 37.1935 10.5929 37.2424 10.6261 37.2424C11.2386 37.2424 11.7185 37.2349 12.0666 37.2183L14.0035 37.1935L16.04 37.2183C16.3715 37.2349 16.8265 37.2424 17.4089 37.2424C17.4541 37.2424 17.4842 37.1935 17.4842 37.094C17.4842 36.9946 17.4541 36.9448 17.4089 36.9448C16.7602 36.9448 16.2886 36.9034 15.9902 36.8205C15.6926 36.7377 15.4937 36.5809 15.3943 36.3489C15.2948 36.1169 15.2452 35.7447 15.2452 35.2309V23.7816C15.2452 23.3348 15.2828 23.0078 15.3574 22.8006C15.4319 22.5942 15.5804 22.4496 15.8042 22.3659C16.0279 22.2838 16.3715 22.2424 16.8348 22.2424C17.876 22.2424 18.7047 22.5445 19.315 23.1487C19.9327 23.7529 20.317 24.6924 20.4827 25.9672C20.5053 26.0169 20.5581 26.0417 20.6485 26.0417C20.7389 26.0417 20.7841 26.0169 20.7841 25.9672C20.7841 25.3215 20.8067 24.4777 20.8594 23.4342C20.9046 22.3908 20.9573 21.6133 21.0101 21.0995C21.0101 21.0339 20.9649 21 20.882 21C20.7991 21 20.7539 21.0339 20.7313 21.0995C20.6484 21.3481 20.4677 21.5138 20.1738 21.5967C19.8876 21.6796 19.4279 21.7203 18.7951 21.7203L17.1083 21.7451C16.0151 21.779 14.9807 21.7949 14.0035 21.7949C12.0997 21.7949 10.4355 21.77 9.01157 21.7203C8.08415 21.7203 7.62081 21.5387 7.62081 21.1741C7.62081 21.0912 7.57482 21.0498 7.48441 21.0498C7.39325 21.0498 7.34808 21.0912 7.34808 21.1741C7.34808 21.6879 7.30586 22.4533 7.22374 23.4712C7.14011 24.4897 7.0663 25.3215 7 25.9672C7 26.0169 7.04517 26.0417 7.13633 26.0417C7.22749 26.0417 7.27347 26.0259 7.27347 25.992C7.62079 24.7338 8.12183 23.7944 8.77577 23.1736C9.42971 22.5528 10.2615 22.2424 11.2718 22.2424ZM40.2819 36.9448C39.6038 36.9448 38.9107 36.6925 38.2025 36.1869C37.5019 35.6822 36.6957 34.867 35.7841 33.7407C34.8725 32.6151 33.7424 31.0503 32.3788 29.047C33.2301 28.6168 33.9006 28.0375 34.4054 27.3089C34.9102 26.5804 35.1664 25.7607 35.1664 24.8499C35.1664 23.8403 34.767 23.0538 33.9835 22.4902C33.2 21.9275 32.085 21.6464 30.646 21.6464C30.2618 21.6464 29.9152 21.6547 29.6138 21.6706C29.305 21.6879 29.0488 21.7045 28.8303 21.7203C28.1824 21.77 27.5872 21.7949 27.0447 21.7949C26.5927 21.7949 26.0051 21.779 25.2818 21.7451L23.986 21.7203C23.9559 21.7203 23.9408 21.77 23.9408 21.8694C23.9408 21.9689 23.9559 22.0186 23.986 22.0186C24.536 22.0186 24.9428 22.0646 25.2065 22.155C25.4702 22.2461 25.651 22.4081 25.7414 22.6394C25.8318 22.8715 25.877 23.2353 25.877 23.7326V35.2309C25.877 35.7281 25.8242 36.0965 25.7263 36.3361C25.6284 36.5764 25.4476 36.7377 25.1914 36.8205C24.9353 36.9034 24.5284 36.9448 23.9634 36.9448C23.9107 36.9448 23.8881 36.9946 23.8881 37.094C23.8881 37.1935 23.9107 37.2424 23.9634 37.2424C24.5058 37.2424 24.9428 37.2349 25.2517 37.2183L27.0447 37.1935L28.883 37.2183C29.1769 37.2349 29.5987 37.2424 30.1487 37.2424C30.1789 37.2424 30.194 37.1935 30.194 37.094C30.194 36.9946 30.1789 36.9448 30.1487 36.9448C29.5837 36.9448 29.1769 36.9034 28.9207 36.8205C28.657 36.7377 28.4837 36.5809 28.3933 36.3489C28.3029 36.1169 28.2577 35.7447 28.2577 35.2309V29.6927C28.755 29.7258 29.1844 29.7424 29.5536 29.7424C29.7495 29.7424 30.0282 29.7258 30.3973 29.6927C31.8664 32.0772 33.1246 33.9313 34.1568 35.2557C35.1889 36.5809 35.8971 37.2424 36.2814 37.2424H40.2819C40.3271 37.2424 40.3572 37.1935 40.3572 37.094C40.3572 36.9946 40.3271 36.9448 40.2819 36.9448ZM28.2577 29.0222V23.7816C28.2577 23.1532 28.3933 22.7185 28.6721 22.4782C28.9433 22.2386 29.4029 22.1181 30.0508 22.1181C30.9097 22.1181 31.5651 22.3833 32.0247 22.9129C32.4767 23.4425 32.7028 24.3782 32.7028 25.7193C32.7028 26.9112 32.4692 27.7768 32.0096 28.3147C31.5425 28.8526 30.774 29.1216 29.6967 29.1216C29.1392 29.1216 28.657 29.0885 28.2577 29.0222ZM51.4547 33.3685C50.8595 35.5209 49.4506 36.5968 47.2357 36.5968H46.0152C45.4878 36.5968 45.1187 36.4898 44.9077 36.2743C44.7043 36.0596 44.5988 35.6784 44.5988 35.1314V29.4938H46.957C48.8178 29.4938 49.7445 30.2065 49.7445 31.6296C49.7445 31.6635 49.7897 31.6794 49.8876 31.6794C49.9931 31.6794 50.0383 31.6635 50.0383 31.6296C50.0383 31.2989 50.0232 30.8687 49.9931 30.3383L49.9629 29.1713L49.9931 27.0106C49.9931 26.9609 49.9479 26.936 49.8499 26.936C49.7595 26.936 49.7143 26.9609 49.7143 27.0106C49.7143 28.2364 48.8027 28.8481 46.987 28.8481H44.5988V23.7816C44.5988 23.2693 44.7269 22.9046 44.9755 22.6891C45.2241 22.4744 45.6461 22.3659 46.2412 22.3659H47.2357C49.1342 22.3659 50.287 23.3099 50.6862 25.1972C50.7013 25.2469 50.754 25.2642 50.8444 25.2469C50.9348 25.2311 50.98 25.2062 50.98 25.1731L50.9349 21.944C50.9349 21.7949 50.852 21.7203 50.6862 21.7203H40.3572C40.3045 21.7203 40.2819 21.77 40.2819 21.8694C40.2819 21.9689 40.3045 22.0186 40.3572 22.0186C40.8996 22.0186 41.3065 22.0646 41.5702 22.155C41.8339 22.2461 42.0147 22.4081 42.1051 22.6394C42.1955 22.8715 42.2407 23.2353 42.2407 23.7326V35.2309C42.2407 35.7281 42.1955 36.0965 42.1051 36.3361C42.0147 36.5764 41.8414 36.7377 41.5852 36.8205C41.3291 36.9034 40.9147 36.9448 40.3572 36.9448C40.3045 36.9448 40.2819 36.9946 40.2819 37.094C40.2819 37.1935 40.3045 37.2424 40.3572 37.2424H51.1307C51.2814 37.2424 51.3793 37.2138 51.4321 37.1558C51.4773 37.0978 51.5074 37.0028 51.5074 36.8703C51.5074 35.8268 51.5903 34.6764 51.756 33.4182C51.756 33.4016 51.7334 33.3805 51.6882 33.3557C51.6506 33.3316 51.6054 33.3188 51.5527 33.3188C51.4848 33.3188 51.4547 33.3353 51.4547 33.3685ZM65.4602 33.3685C64.8651 35.5209 63.4562 36.5968 61.2412 36.5968H60.0207C59.4934 36.5968 59.1242 36.4898 58.9208 36.2743C58.7099 36.0596 58.6044 35.6784 58.6044 35.1314V29.4938H60.9701C62.8234 29.4938 63.75 30.2065 63.75 31.6296C63.75 31.6635 63.7952 31.6794 63.9007 31.6794C63.9986 31.6794 64.0439 31.6635 64.0439 31.6296C64.0439 31.2989 64.0288 30.8687 63.9986 30.3383L63.9761 29.1713L63.9986 27.0106C63.9986 26.9609 63.9534 26.936 63.863 26.936C63.7726 26.936 63.7274 26.9609 63.7274 27.0106C63.7274 28.2364 62.8159 28.8481 60.9926 28.8481H58.6044V23.7816C58.6044 23.2693 58.7325 22.9046 58.9811 22.6891C59.2297 22.4744 59.6516 22.3659 60.2468 22.3659H61.2412C63.1473 22.3659 64.2925 23.3099 64.6918 25.1972C64.7068 25.2469 64.7596 25.2642 64.8575 25.2469C64.9479 25.2311 64.9931 25.2062 64.9931 25.1731L64.9404 21.944C64.9404 21.7949 64.8575 21.7203 64.6918 21.7203H54.3628C54.3101 21.7203 54.2875 21.77 54.2875 21.8694C54.2875 21.9689 54.3101 22.0186 54.3628 22.0186C54.9052 22.0186 55.312 22.0646 55.5757 22.155C55.8394 22.2461 56.0203 22.4081 56.1107 22.6394C56.2011 22.8715 56.2463 23.2353 56.2463 23.7326V35.2309C56.2463 35.7281 56.2011 36.0965 56.1107 36.3361C56.0203 36.5764 55.847 36.7377 55.5908 36.8205C55.3347 36.9034 54.9203 36.9448 54.3628 36.9448C54.3101 36.9448 54.2875 36.9946 54.2875 37.094C54.2875 37.1935 54.3101 37.2424 54.3628 37.2424H65.1363C65.287 37.2424 65.3849 37.2138 65.4377 37.1558C65.4904 37.0978 65.513 37.0028 65.513 36.8703C65.513 35.8268 65.5959 34.6764 65.7616 33.4182C65.7616 33.4016 65.739 33.3805 65.7013 33.3557C65.6561 33.3316 65.6109 33.3188 65.5582 33.3188C65.4979 33.3188 65.4602 33.3353 65.4602 33.3685ZM82.2986 37.5408C83.8581 37.5408 85.3046 37.1769 86.6381 36.4484C87.9641 35.7198 89.0339 34.7261 89.825 33.4679C90.6236 32.2098 91.0153 30.8273 91.0153 29.3205C91.0153 27.9629 90.6989 26.6799 90.0585 25.4707C89.4257 24.2622 88.5065 23.2896 87.3161 22.5528C86.1258 21.816 84.7395 21.4475 83.1725 21.4475C81.7636 21.4475 80.385 21.7542 79.0364 22.3659C77.6878 22.9792 76.5803 23.8938 75.7215 25.1105C74.8551 26.3273 74.4256 27.7889 74.4256 29.4938C74.4256 30.9516 74.7571 32.2964 75.4125 33.5297C76.0604 34.7638 76.9872 35.7402 78.1926 36.4604C79.3905 37.1806 80.7616 37.5408 82.2986 37.5408ZM83.1424 36.9448C81.9897 36.9448 80.95 36.5847 80.0309 35.8645C79.1117 35.1442 78.3885 34.1467 77.8686 32.872C77.3488 31.5973 77.0851 30.1733 77.0851 28.6003C77.0851 26.5638 77.5296 24.9704 78.4111 23.8192C79.3001 22.6688 80.5431 22.0932 82.1554 22.0932C83.406 22.0932 84.506 22.433 85.4402 23.111C86.3744 23.7906 87.0977 24.7338 87.6025 25.9423C88.1073 27.1515 88.3634 28.5174 88.3634 30.0407C88.3634 31.4812 88.1299 32.7228 87.6778 33.7655C87.2258 34.809 86.6005 35.6 85.8169 36.138C85.0259 36.6759 84.1369 36.9448 83.1424 36.9448ZM103.363 21.944C103.363 21.7949 103.281 21.7203 103.115 21.7203H92.7782C92.733 21.7203 92.7029 21.77 92.7029 21.8694C92.7029 21.9689 92.733 22.0186 92.7782 22.0186C93.3282 22.0186 93.7351 22.0646 93.9987 22.155C94.2624 22.2461 94.4433 22.4081 94.5337 22.6394C94.6241 22.8715 94.6693 23.2353 94.6693 23.7326V35.2309C94.6693 35.7281 94.6166 36.0965 94.5186 36.3361C94.4207 36.5764 94.2323 36.7377 93.9611 36.8205C93.6899 36.9034 93.2529 36.9448 92.6577 36.9448C92.605 36.9448 92.5824 36.9946 92.5824 37.094C92.5824 37.1935 92.605 37.2424 92.6577 37.2424C93.2228 37.2424 93.6597 37.2349 93.9762 37.2183L95.7843 37.1935L98.2177 37.2183C98.602 37.2349 99.1294 37.2424 99.8074 37.2424C99.8451 37.2424 99.8601 37.1935 99.8601 37.094C99.8601 36.9946 99.8451 36.9448 99.8074 36.9448C99.0013 36.9448 98.3986 36.8951 98.0068 36.7957C97.6226 36.6962 97.3589 36.5267 97.2233 36.2864C97.0952 36.0468 97.0274 35.6618 97.0274 35.1314V29.7921H99.0164C100.915 29.7921 101.872 30.4958 101.872 31.9031C101.872 31.9529 101.917 31.9777 102.022 31.9777C102.12 31.9777 102.166 31.9529 102.166 31.9031L102.143 30.6118C102.128 30.3632 102.12 29.9827 102.12 29.4689L102.143 27.2841C102.143 27.2509 102.098 27.2344 101.992 27.2344C101.894 27.2344 101.849 27.2509 101.849 27.2841C101.849 28.5257 100.915 29.1465 99.0616 29.1465H97.0274V23.7574C97.0274 23.2602 97.1555 22.9046 97.4041 22.6891C97.6452 22.4744 98.0746 22.3659 98.6698 22.3659H99.6643C101.563 22.3659 102.715 23.3099 103.115 25.1972C103.13 25.2469 103.183 25.2642 103.273 25.2469C103.363 25.2311 103.409 25.2062 103.409 25.1731L103.363 21.944ZM116.472 23.6324C116.472 23.1359 116.518 22.7675 116.608 22.5272C116.699 22.2876 116.872 22.1218 117.135 22.0307C117.392 21.9395 117.791 21.8936 118.333 21.8936C118.386 21.8936 118.409 21.8438 118.409 21.7451C118.409 21.6457 118.386 21.596 118.333 21.596L117.098 21.6208C116.367 21.654 115.757 21.6706 115.259 21.6706C114.792 21.6706 114.197 21.654 113.466 21.6208L112.201 21.596C112.171 21.596 112.156 21.6457 112.156 21.7451C112.156 21.8438 112.171 21.8936 112.201 21.8936C112.751 21.8936 113.158 21.9395 113.421 22.0307C113.685 22.1218 113.858 22.2831 113.956 22.5143C114.047 22.7464 114.092 23.111 114.092 23.6075V35.1066C114.092 35.603 114.047 35.9715 113.956 36.2118C113.858 36.4514 113.685 36.6133 113.429 36.6955C113.173 36.7791 112.766 36.8198 112.201 36.8198C112.171 36.8198 112.156 36.8695 112.156 36.9689C112.156 37.0684 112.171 37.1181 112.201 37.1181H123.826C123.976 37.1181 124.074 37.0895 124.119 37.0307C124.172 36.9735 124.195 36.8785 124.195 36.7452C124.195 35.7191 124.27 34.4278 124.421 32.8712C124.421 32.8215 124.383 32.7929 124.3 32.7838C124.217 32.7763 124.165 32.7967 124.15 32.8464C123.886 33.9554 123.343 34.8376 122.537 35.4915C121.724 36.1455 120.729 36.4725 119.554 36.4725H118.062C117.58 36.4725 117.233 36.4393 117.022 36.373C116.804 36.3067 116.661 36.1741 116.585 35.9752C116.51 35.7771 116.472 35.4539 116.472 35.0071V23.6324ZM131.503 35.2309V23.7816C131.503 23.2851 131.548 22.9167 131.638 22.6771C131.729 22.4368 131.902 22.2672 132.158 22.1678C132.414 22.0683 132.814 22.0186 133.364 22.0186C133.409 22.0186 133.439 21.9689 133.439 21.8694C133.439 21.77 133.409 21.7203 133.364 21.7203L132.12 21.7451C131.39 21.779 130.772 21.7949 130.26 21.7949C129.792 21.7949 129.197 21.779 128.466 21.7451L127.178 21.7203C127.125 21.7203 127.103 21.77 127.103 21.8694C127.103 21.9689 127.125 22.0186 127.178 22.0186C127.743 22.0186 128.15 22.0646 128.406 22.155C128.662 22.2461 128.843 22.4081 128.941 22.6394C129.039 22.8715 129.092 23.2353 129.092 23.7326V35.2309C129.092 35.7281 129.039 36.0965 128.941 36.3361C128.843 36.5764 128.662 36.7377 128.406 36.8205C128.15 36.9034 127.743 36.9448 127.178 36.9448C127.125 36.9448 127.103 36.9946 127.103 37.094C127.103 37.1935 127.125 37.2424 127.178 37.2424C127.721 37.2424 128.158 37.2349 128.466 37.2183L130.26 37.1935L132.098 37.2183C132.407 37.2349 132.829 37.2424 133.364 37.2424C133.409 37.2424 133.439 37.1935 133.439 37.094C133.439 36.9946 133.409 36.9448 133.364 36.9448C132.798 36.9448 132.392 36.9034 132.135 36.8205C131.872 36.7377 131.706 36.5809 131.623 36.3489C131.54 36.1169 131.503 35.7447 131.503 35.2309ZM147.444 21.944C147.444 21.7949 147.362 21.7203 147.196 21.7203H136.867C136.814 21.7203 136.791 21.77 136.791 21.8694C136.791 21.9689 136.814 22.0186 136.867 22.0186C137.409 22.0186 137.816 22.0646 138.08 22.155C138.343 22.2461 138.524 22.4081 138.615 22.6394C138.705 22.8715 138.75 23.2353 138.75 23.7326V35.2309C138.75 35.7281 138.698 36.0965 138.6 36.3361C138.502 36.5764 138.313 36.7377 138.042 36.8205C137.771 36.9034 137.334 36.9448 136.739 36.9448C136.686 36.9448 136.663 36.9946 136.663 37.094C136.663 37.1935 136.686 37.2424 136.739 37.2424C137.304 37.2424 137.741 37.2349 138.057 37.2183L139.865 37.1935L142.299 37.2183C142.683 37.2349 143.21 37.2424 143.888 37.2424C143.926 37.2424 143.941 37.1935 143.941 37.094C143.941 36.9946 143.926 36.9448 143.888 36.9448C143.082 36.9448 142.48 36.8951 142.088 36.7957C141.704 36.6962 141.44 36.5267 141.312 36.2864C141.176 36.0468 141.108 35.6618 141.108 35.1314V29.7921H143.097C145.003 29.7921 145.953 30.4958 145.953 31.9031C145.953 31.9529 146.005 31.9777 146.103 31.9777C146.201 31.9777 146.254 31.9529 146.254 31.9031L146.224 30.6118C146.209 30.3632 146.201 29.9827 146.201 29.4689L146.224 27.2841C146.224 27.2509 146.179 27.2344 146.081 27.2344C145.975 27.2344 145.93 27.2509 145.93 27.2841C145.93 28.5257 145.003 29.1465 143.15 29.1465H141.108V23.7574C141.108 23.2602 141.236 22.9046 141.485 22.6891C141.734 22.4744 142.156 22.3659 142.751 22.3659H143.745C145.644 22.3659 146.797 23.3099 147.196 25.1972C147.211 25.2469 147.264 25.2642 147.354 25.2469C147.444 25.2311 147.49 25.2062 147.49 25.1731L147.444 21.944ZM161.699 33.3685C161.103 35.5209 159.695 36.5968 157.48 36.5968H156.259C155.732 36.5968 155.363 36.4898 155.152 36.2743C154.948 36.0596 154.843 35.6784 154.843 35.1314V29.4938H157.201C159.054 29.4938 159.988 30.2065 159.988 31.6296C159.988 31.6635 160.034 31.6794 160.132 31.6794C160.229 31.6794 160.282 31.6635 160.282 31.6296C160.282 31.2989 160.267 30.8687 160.23 30.3383L160.207 29.1713L160.23 27.0106C160.23 26.9609 160.184 26.936 160.094 26.936C160.003 26.936 159.958 26.9609 159.958 27.0106C159.958 28.2364 159.047 28.8481 157.231 28.8481H154.843V23.7816C154.843 23.2693 154.971 22.9046 155.219 22.6891C155.468 22.4744 155.89 22.3659 156.485 22.3659H157.48C159.378 22.3659 160.531 23.3099 160.93 25.1972C160.945 25.2469 160.998 25.2642 161.088 25.2469C161.179 25.2311 161.224 25.2062 161.224 25.1731L161.179 21.944C161.179 21.7949 161.096 21.7203 160.93 21.7203H150.594C150.548 21.7203 150.526 21.77 150.526 21.8694C150.526 21.9689 150.548 22.0186 150.594 22.0186C151.144 22.0186 151.55 22.0646 151.814 22.155C152.078 22.2461 152.259 22.4081 152.349 22.6394C152.439 22.8715 152.485 23.2353 152.485 23.7326V35.2309C152.485 35.7281 152.439 36.0965 152.349 36.3361C152.259 36.5764 152.085 36.7377 151.829 36.8205C151.573 36.9034 151.159 36.9448 150.594 36.9448C150.548 36.9448 150.526 36.9946 150.526 37.094C150.526 37.1935 150.548 37.2424 150.594 37.2424H161.375C161.525 37.2424 161.623 37.2138 161.676 37.1558C161.721 37.0978 161.751 37.0028 161.751 36.8703C161.751 35.8268 161.834 34.6764 162 33.4182C162 33.4016 161.977 33.3805 161.932 33.3557C161.894 33.3316 161.849 33.3188 161.797 33.3188C161.729 33.3188 161.699 33.3353 161.699 33.3685Z" fill="white"></path>
</svg>
