<svg width="24" height="18" viewBox="0 0 24 18" fill="none" xmlns="http://www.w3.org/2000/svg">
<path d="M15.0464 18C13.14 18 11.2341 18 9.32766 18C9.24281 17.9897 9.15844 17.9719 9.07359 17.97C8.17688 17.9494 7.27922 17.9461 6.38344 17.9087C5.34 17.8651 4.29609 17.8379 3.25875 17.6871C1.85484 17.4824 0.912188 16.7583 0.503438 15.3719C0.294844 14.6647 0.178594 13.9457 0.127969 13.2122C0.0895318 12.6534 0.043125 12.0951 0 11.5363C0 9.8347 0 8.1326 0 6.43097C0.043125 5.87969 0.0895315 5.32887 0.128438 4.77712C0.191719 3.87782 0.329063 2.99399 0.684844 2.15793C1.12781 1.11812 1.92563 0.522337 3.02813 0.32468C3.69047 0.205711 4.36312 0.186976 5.0325 0.155594C6.91125 0.0670698 8.79141 0.00383813 10.673 0.00102784C12.8588 -0.00225084 15.0445 -0.00318757 17.2294 0.0881469C18.3834 0.13639 19.5384 0.16262 20.6873 0.285804C21.9698 0.42304 22.8848 1.06613 23.362 2.28814C23.6897 3.12654 23.8116 4.00429 23.872 4.89468C23.9123 5.48531 23.9573 6.07547 24 6.66563C24 8.22675 24 9.78833 24 11.3494C23.9569 11.9396 23.9119 12.5298 23.8716 13.1204C23.8139 13.9635 23.7009 14.7953 23.4089 15.5949C23.2158 16.1237 22.9416 16.5916 22.5098 16.9686C21.862 17.534 21.0848 17.718 20.2603 17.7705C18.6483 17.8731 17.0348 17.955 15.4191 17.9691C15.2939 17.9691 15.1678 17.9602 15.0464 18ZM9.01453 9.01457C9.01453 10.4038 9.01406 11.7935 9.015 13.1827C9.015 13.438 9.04078 13.453 9.25828 13.3223C11.5828 11.9293 13.9069 10.5359 16.2309 9.14197C16.4452 9.01316 16.4456 9.00004 16.2375 8.87499C13.9139 7.48108 11.5894 6.08765 9.26484 4.69468C9.03375 4.55604 9.015 4.56775 9.015 4.84597C9.01406 6.23613 9.01453 7.62535 9.01453 9.01457Z" fill="white"></path>
</svg>
