<svg width="20" height="20" viewBox="0 0 20 20" fill="none" xmlns="http://www.w3.org/2000/svg">
<path d="M5.80591 0H14.2003C14.5299 0.0381832 14.8603 0.0701485 15.189 0.117211C17.4817 0.443101 19.1481 1.90383 19.7335 4.09004C19.8836 4.64947 19.928 5.2231 20 5.79408V14.1855C19.9618 14.5149 19.9298 14.8453 19.8827 15.1738C19.5434 17.5509 17.9853 19.2523 15.6749 19.7727C14.9465 19.9258 14.2037 19.9994 13.4595 19.992C11.1623 20.0027 8.86461 20.0027 6.56629 19.992C5.9774 19.9902 5.38937 19.9469 4.80657 19.8624C2.43926 19.5178 0.758605 17.9816 0.222962 15.6773C0.0786411 15.0269 0.00713829 14.3624 0.00977126 13.6962C-0.00325709 11.2211 -0.00325709 8.74661 0.00977126 6.2727C0.0179089 5.78481 0.0585641 5.298 0.131467 4.81552C0.461914 2.43573 2.01821 0.737911 4.32867 0.206898C4.81368 0.0950128 5.31201 0.0683745 5.80591 0ZM9.99067 1.86476C9.41328 1.86476 8.83589 1.85588 8.25938 1.86476C7.16234 1.88518 6.06085 1.83013 4.97268 2.01572C3.39152 2.28211 2.37531 3.2509 2.0573 4.81375C1.96841 5.22576 1.91904 5.6453 1.90984 6.06669C1.87964 8.89579 1.79525 11.7249 1.96402 14.5522C2.07151 16.3477 3.11881 17.5714 4.81723 17.9372C5.30639 18.0388 5.80464 18.0903 6.30424 18.0908C8.14746 18.1068 9.98978 18.1201 11.8321 18.1139C12.9069 18.1139 13.9871 18.1548 15.0531 17.9612C16.5818 17.6841 17.5616 16.8113 17.9303 15.2822C18.0387 14.8285 18.0956 14.3642 18.0999 13.8978C18.131 11.0918 18.2119 8.28398 18.0493 5.47973C17.9276 3.40008 16.5969 2.09386 14.5183 1.9429C13.0082 1.83013 11.499 1.88785 9.99067 1.86209V1.86476Z" fill="white"></path>
<path d="M9.82811 4.81374C11.1696 4.76804 12.4765 5.24472 13.4733 6.14334C14.4702 7.04195 15.0791 8.29231 15.1718 9.63093C15.2645 10.9695 14.8338 12.2919 13.9703 13.3192C13.1069 14.3466 11.8782 14.9988 10.5432 15.1383C7.58161 15.4393 5.08372 13.2433 4.85809 10.5128C4.60848 7.42441 6.71108 5.04107 9.82811 4.81374ZM13.272 9.99423C13.2729 9.34826 13.0823 8.71653 12.7241 8.17884C12.366 7.64115 11.8565 7.22162 11.26 6.97325C10.6635 6.72488 10.0067 6.65881 9.37266 6.78339C8.7386 6.90797 8.1557 7.21761 7.6976 7.6732C7.23949 8.12878 6.92674 8.70987 6.79885 9.34305C6.67095 9.97624 6.73365 10.6331 6.97903 11.2307C7.22441 11.8283 7.64146 12.3397 8.17749 12.7005C8.71352 13.0612 9.34448 13.2551 9.99067 13.2576C10.4221 13.2646 10.8506 13.1851 11.2507 13.0238C11.6509 12.8625 12.0147 12.6227 12.3206 12.3185C12.6265 12.0142 12.8683 11.6518 13.0317 11.2526C13.1951 10.8534 13.2768 10.4255 13.272 9.99423Z" fill="white"></path>
<path d="M15.324 5.89264C15.0136 5.86503 14.7248 5.7219 14.5149 5.49159C14.305 5.26128 14.1893 4.96057 14.1906 4.64901C14.1919 4.33745 14.3103 4.03775 14.5221 3.80925C14.734 3.58075 15.024 3.44011 15.3347 3.41517C15.6645 3.41517 15.9808 3.54615 16.214 3.77929C16.4473 4.01243 16.5783 4.32864 16.5783 4.65835C16.5788 4.82223 16.5465 4.98456 16.4834 5.13582C16.4203 5.28708 16.3277 5.42422 16.2108 5.53919C16.094 5.65416 15.9554 5.74464 15.8031 5.80534C15.6508 5.86603 15.4879 5.89572 15.324 5.89264Z" fill="white"></path>
</svg>
