<svg width="19" height="19" viewBox="0 0 19 19" fill="none" xmlns="http://www.w3.org/2000/svg">
<g clip-path="url(#clip0_1230_1314)">
<path d="M4.33205 3.18019C4.33205 3.76795 4.11956 4.27434 3.69509 4.69986C3.27011 5.12488 2.76438 5.33765 2.17738 5.33765C1.57525 5.33765 1.06194 5.12488 0.636963 4.69986C0.212489 4.27434 0 3.76795 0 3.18019C0 2.57728 0.212489 2.06331 0.636963 1.63779C1.06194 1.21276 1.57525 1 2.17738 1C2.76438 1 3.27011 1.21276 3.69509 1.63779C4.11956 2.06331 4.33205 2.57728 4.33205 3.18019ZM9.93803 6.98467V8.63169H10.0077C10.255 8.15209 10.6759 7.70736 11.2705 7.2975C11.8651 6.88814 12.6176 6.68296 13.5291 6.68296C15.4133 6.68296 16.6292 7.2318 17.1778 8.32998C17.7259 9.42766 18 10.7886 18 12.4124V19H14.2701V13.1548C14.2701 12.4589 14.1853 11.7554 14.0157 11.0439C13.8456 10.3323 13.2818 9.97701 12.3244 9.97701C11.3669 9.97701 10.7567 10.2939 10.4942 10.9281C10.2318 11.5619 10.1006 12.2734 10.1006 13.0618V19H6.37064V6.98467H9.93803ZM0.301321 6.98467H4.03073V19H0.301321V6.98467Z" fill="white"></path>
</g>
<defs>
<clipPath id="clip0_1230_1314">
<rect width="18.49" height="18.49" fill="white"></rect>
</clipPath>
</defs>
</svg>
