<svg width="326" height="284" viewBox="0 0 326 284" fill="none" xmlns="http://www.w3.org/2000/svg">
<path d="M123.215 131.658C123.215 127.161 123.754 115.291 123.754 111.693C123.754 109.175 123.575 108.096 122.317 108.096C120.88 108.096 116.39 109.895 104.715 109.895H32.151C26.0441 109.895 19.2187 109.535 13.8303 108.996C9.33995 108.636 7.36419 107.017 5.92727 107.017C4.84959 107.017 4.31074 108.096 3.7719 110.255C3.41267 111.693 0 127.341 0 130.039C0 132.018 0.359229 132.737 1.61653 132.737C2.69422 132.737 3.23306 132.018 3.59229 130.759C3.95152 129.32 4.84959 127.341 6.64573 124.823C9.33995 121.046 13.8303 120.147 24.4275 119.787L51.7289 119.068V189.573C51.7289 205.401 51.7289 218.89 50.8309 226.265C50.292 231.301 49.2143 235.078 45.4424 235.797C43.8259 236.157 41.6705 236.517 38.7967 236.517C36.6413 236.517 35.9229 237.056 35.9229 237.956C35.9229 239.035 37.1802 239.754 39.5152 239.754C46.8793 239.754 58.3747 239.215 62.6854 239.215C67.8942 239.215 79.3895 239.754 91.4237 239.754C93.3994 239.754 94.8364 239.215 94.8364 237.956C94.8364 237.056 93.9383 236.517 91.9625 236.517C89.2683 236.517 85.1372 236.157 82.6226 235.797C77.0545 235.078 75.9769 231.301 75.438 226.445C74.5399 219.07 74.5399 205.401 74.5399 189.753V119.248L97.7102 119.787C114.055 120.147 118.905 125.003 119.264 129.5V131.298C119.623 133.816 119.982 134.716 121.419 134.716C122.497 134.716 122.856 133.636 123.036 132.018M188.056 184.717C188.056 184.717 188.056 185.796 187.158 185.796H154.289C154.289 185.796 153.391 185.256 153.57 184.537L170.095 142.27C170.095 142.27 170.634 140.651 171.172 140.651C171.711 140.651 171.891 141.55 172.071 142.27L188.236 184.717H188.056ZM224.338 216.732C212.843 190.652 184.284 120.507 179.974 110.974C178.177 107.017 177.1 105.398 175.483 105.398C173.687 105.398 172.609 107.377 170.454 112.233L125.55 220.149C121.958 228.783 118.545 234.538 110.283 235.617C108.846 235.797 106.332 235.977 104.715 235.977C103.278 235.977 102.56 236.337 102.56 237.416C102.56 238.855 103.637 239.215 105.972 239.215C115.312 239.215 125.191 238.675 127.167 238.675C132.735 238.675 140.458 239.215 146.026 239.215C148.002 239.215 149.08 238.855 149.08 237.416C149.08 236.337 148.541 235.977 146.386 235.977H143.691C138.123 235.977 136.507 233.639 136.507 230.581C136.507 228.423 137.405 224.466 139.201 220.149L148.9 195.509C149.26 194.429 149.619 194.07 150.517 194.07H190.391C190.391 194.07 191.828 194.429 192.187 195.329L206.556 231.84C207.455 233.819 206.197 235.438 204.94 235.797C203.144 235.797 202.425 236.337 202.425 237.416C202.425 238.675 204.581 238.675 207.814 238.855C222.183 239.215 235.115 239.215 241.581 239.215C248.047 239.215 249.844 238.855 249.844 237.416C249.844 236.157 248.945 235.977 247.509 235.977C245.353 235.977 242.659 235.977 239.965 235.258C236.193 234.358 230.984 232.02 224.159 216.552M257.028 79.6783L247.688 74.6422L266.368 64.3901L257.028 79.6783ZM262.596 82.7359L271.936 67.4478V87.772L262.596 82.7359ZM235.474 76.8005L275.888 98.9234V66.0089L265.47 60.2533L235.474 76.6206V76.8005ZM259.183 52.5193L240.504 62.7714V52.5193H259.183ZM259.183 46.4041H240.504V36.152L259.183 46.4041ZM262.417 43.886L232.421 27.5187V71.7644L262.417 55.3971V44.0659V43.886ZM266.368 34.7131L247.688 24.4611L257.028 19.425L266.368 34.7131ZM271.936 31.6555L262.596 16.3673L271.936 11.3312V31.6555ZM265.65 38.4902L276.067 32.7346V0L235.654 22.1229L265.65 38.4902ZM301.213 109.715C294.388 109.715 283.431 110.255 279.121 110.255C274.63 110.255 263.494 109.715 254.154 109.715C251.46 109.715 250.203 110.075 250.203 111.334C250.203 112.593 251.28 112.773 253.256 112.773C255.771 112.773 258.645 112.773 260.082 113.312C265.829 114.571 267.266 117.269 267.625 123.025C267.985 128.6 267.985 133.277 267.985 159.536V208.818C267.985 242.632 267.985 259.719 254.873 273.028C251.28 276.446 248.766 278.424 246.431 279.503C243.377 281.122 242.659 281.662 242.659 282.561C242.659 283.46 243.377 284 244.096 284C244.994 284 246.431 283.64 247.509 282.921C251.28 281.122 253.975 279.863 256.31 278.424C273.193 268.352 282.354 256.481 286.126 245.87C289.718 236.157 290.257 225.186 290.257 215.473C290.257 206.84 289.718 198.566 289.718 191.192V159.357C289.718 133.277 289.718 128.421 290.077 122.845C290.436 116.73 291.873 113.852 296.543 113.132C298.699 112.773 299.597 112.593 301.572 112.593C303.728 112.593 304.626 112.233 304.626 111.154C304.626 110.075 303.369 109.535 300.854 109.535M286.305 67.4478L295.645 82.7359L286.305 87.9519V67.4478ZM301.213 79.6783L291.873 64.3901L310.374 74.6422L301.034 79.6783H301.213ZM282.354 98.9234L322.767 76.8005L292.771 60.4332L282.354 66.1887V99.1032V98.9234ZM310.553 24.4611L291.873 34.7131L301.213 19.425L310.553 24.4611ZM295.645 16.3673L286.305 31.6555V11.1514L295.645 16.3673ZM292.771 38.4902L322.767 22.1229L282.354 0V32.9145L292.771 38.67V38.4902ZM317.738 62.7714L299.058 52.5193H317.738V62.7714ZM317.738 46.4041H299.058L317.738 36.152V46.4041ZM326 71.5845V27.3388L296.004 43.7061V55.0374L326 71.4047V71.5845Z" fill="white"/>
</svg>
